<?xml version="1.0" standalone="no"?>
<!DOCTYPE svg PUBLIC "-//W3C//DTD SVG 20010904//EN"
 "http://www.w3.org/TR/2001/REC-SVG-20010904/DTD/svg10.dtd">
<svg version="1.0" xmlns="http://www.w3.org/2000/svg"
 width="512.000000pt" height="512.000000pt" viewBox="0 0 512.000000 512.000000"
 preserveAspectRatio="xMidYMid meet">

<g transform="translate(0.000000,512.000000) scale(0.100000,-0.100000)"
fill="#000000" stroke="none">
<path d="M1280 5107 c-49 -16 -133 -102 -148 -153 -7 -23 -12 -66 -12 -97 l0
-55 -248 -4 -248 -3 -76 -38 c-117 -57 -192 -152 -218 -275 -7 -31 -9 -756 -8
-2113 l3 -2065 37 -76 c45 -91 103 -147 196 -191 l67 -32 1935 0 1935 0 67 32
c93 44 151 100 196 191 l37 76 0 2095 0 2096 -32 67 c-44 93 -100 151 -191
196 l-76 37 -248 3 -248 4 0 55 c0 80 -18 128 -67 183 -95 106 -236 108 -338
5 -57 -56 -75 -102 -75 -189 l0 -56 -960 0 -960 0 0 56 c0 81 -18 129 -67 184
-65 72 -158 97 -253 67z m135 -172 c25 -24 25 -26 25 -215 0 -189 0 -191 -25
-215 -15 -16 -36 -25 -55 -25 -19 0 -40 9 -55 25 -25 24 -25 26 -25 215 0 189
0 191 25 215 15 16 36 25 55 25 19 0 40 -9 55 -25z m2400 0 c25 -24 25 -26 25
-215 0 -189 0 -191 -25 -215 -15 -16 -36 -25 -55 -25 -19 0 -40 9 -55 25 -25
24 -25 26 -25 215 0 189 0 191 25 215 15 16 36 25 55 25 19 0 40 -9 55 -25z
m-2695 -351 c0 -87 18 -133 75 -189 102 -103 243 -101 338 5 49 55 67 103 67
184 l0 56 960 0 960 0 0 -56 c0 -87 18 -133 75 -189 101 -102 229 -102 330 0
57 56 75 102 75 189 l0 56 219 0 c251 0 281 -6 348 -72 66 -65 73 -97 73 -350
l0 -218 -2080 0 -2080 0 0 218 c0 261 6 289 80 355 27 24 63 48 82 54 19 6
129 11 256 12 l222 1 0 -56z m3520 -1863 l0 -1120 -327 -3 c-297 -3 -333 -5
-376 -23 -99 -41 -197 -139 -234 -235 -15 -38 -18 -93 -21 -372 l-3 -328
-1496 0 c-1145 0 -1505 3 -1537 12 -55 16 -138 99 -154 154 -9 32 -12 392 -12
1538 l0 1496 2080 0 2080 0 0 -1119z m-455 -1621 l-340 -340 -3 237 c-3 283 2
308 78 376 27 24 63 48 82 54 19 7 135 11 278 12 l245 1 -340 -340z m443 -770
c-16 -58 -96 -141 -154 -158 -60 -18 -3768 -18 -3828 0 -55 16 -138 99 -154
154 -7 23 -12 84 -12 136 l0 94 72 -35 72 -36 1585 -3 1585 -2 421 420 420
420 3 -473 c2 -350 0 -484 -10 -517z"/>
<path d="M1945 4375 c-16 -15 -25 -36 -25 -55 0 -19 9 -40 25 -55 l24 -25 591
0 591 0 24 25 c16 15 25 36 25 55 0 19 -9 40 -25 55 l-24 25 -591 0 -591 0
-24 -25z"/>
<path d="M895 3506 c-37 -16 -70 -52 -84 -89 -7 -16 -11 -108 -11 -218 0 -215
6 -239 66 -285 l37 -29 203 -3 c229 -4 253 1 300 64 l29 37 0 217 0 217 -29
37 c-46 61 -70 66 -288 66 -138 -1 -201 -5 -223 -14z m385 -306 l0 -160 -160
0 -160 0 0 160 0 160 160 0 160 0 0 -160z"/>
<path d="M1855 3506 c-41 -18 -83 -69 -90 -109 -4 -18 -5 -118 -3 -224 3 -210
5 -218 72 -267 26 -20 41 -21 246 -21 205 0 220 1 246 21 68 51 69 53 69 294
0 205 -1 220 -21 246 -50 67 -55 69 -282 71 -157 2 -214 0 -237 -11z m385
-306 l0 -160 -160 0 -160 0 0 160 0 160 160 0 160 0 0 -160z"/>
<path d="M2815 3506 c-41 -18 -83 -69 -90 -109 -4 -18 -5 -118 -3 -224 3 -210
5 -218 72 -267 26 -20 41 -21 246 -21 205 0 220 1 246 21 68 51 69 53 69 294
0 205 -1 220 -21 246 -50 67 -55 69 -282 71 -157 2 -214 0 -237 -11z m385
-306 l0 -160 -160 0 -160 0 0 160 0 160 160 0 160 0 0 -160z"/>
<path d="M3775 3506 c-41 -18 -83 -69 -90 -109 -4 -18 -5 -118 -3 -224 3 -210
5 -218 72 -267 25 -19 44 -21 231 -24 231 -4 254 1 301 64 l29 37 0 218 c0
204 -1 219 -21 245 -50 67 -55 69 -282 71 -157 2 -214 0 -237 -11z m385 -306
l0 -160 -160 0 -160 0 0 160 0 160 160 0 160 0 0 -160z"/>
<path d="M895 2546 c-41 -18 -83 -69 -90 -109 -4 -18 -5 -118 -3 -224 3 -210
5 -218 72 -267 25 -19 44 -21 231 -24 231 -4 254 1 301 64 l29 37 0 218 c0
204 -1 219 -21 245 -50 67 -55 69 -282 71 -157 2 -214 0 -237 -11z m385 -306
l0 -160 -160 0 -160 0 0 160 0 160 160 0 160 0 0 -160z"/>
<path d="M1855 2546 c-41 -18 -83 -69 -90 -109 -4 -18 -5 -118 -3 -224 3 -210
5 -218 72 -267 25 -19 44 -21 231 -24 231 -4 254 1 301 64 l29 37 0 218 c0
204 -1 219 -21 245 -50 67 -55 69 -282 71 -157 2 -214 0 -237 -11z m385 -306
l0 -160 -160 0 -160 0 0 160 0 160 160 0 160 0 0 -160z"/>
<path d="M2815 2546 c-41 -18 -83 -69 -90 -109 -4 -18 -5 -118 -3 -224 3 -210
5 -218 72 -267 26 -20 41 -21 246 -21 205 0 220 1 246 21 68 51 69 53 69 294
0 205 -1 220 -21 246 -50 67 -55 69 -282 71 -157 2 -214 0 -237 -11z m385
-306 l0 -160 -160 0 -160 0 0 160 0 160 160 0 160 0 0 -160z"/>
<path d="M3775 2546 c-41 -18 -83 -69 -90 -109 -4 -18 -5 -118 -3 -224 3 -210
5 -218 72 -267 26 -20 41 -21 246 -21 205 0 220 1 246 21 68 51 69 53 69 294
0 205 -1 220 -21 246 -50 67 -55 69 -282 71 -157 2 -214 0 -237 -11z m385
-306 l0 -160 -160 0 -160 0 0 160 0 160 160 0 160 0 0 -160z"/>
<path d="M892 1583 c-18 -9 -45 -32 -60 -51 -27 -35 -27 -36 -30 -238 -4 -229
1 -253 64 -300 l37 -29 203 -3 c229 -4 253 2 302 66 l27 35 0 217 0 217 -27
35 c-48 62 -72 68 -290 68 -158 0 -199 -3 -226 -17z m388 -303 l0 -160 -160 0
-160 0 0 160 0 160 160 0 160 0 0 -160z"/>
<path d="M1855 1586 c-41 -18 -83 -69 -90 -109 -4 -18 -5 -118 -3 -224 3 -210
5 -218 72 -267 26 -20 41 -21 246 -21 241 0 243 1 294 69 20 26 21 41 21 246
0 205 -1 220 -21 246 -50 67 -55 69 -282 71 -157 2 -214 0 -237 -11z m385
-306 l0 -160 -160 0 -160 0 0 160 0 160 160 0 160 0 0 -160z"/>
<path d="M2815 1586 c-41 -18 -83 -69 -90 -109 -4 -18 -5 -118 -3 -224 3 -210
5 -218 72 -267 26 -20 41 -21 246 -21 205 0 220 1 246 21 68 51 69 53 69 294
0 205 -1 220 -21 246 -50 67 -55 69 -282 71 -157 2 -214 0 -237 -11z m385
-306 l0 -160 -160 0 -160 0 0 160 0 160 160 0 160 0 0 -160z"/>
</g>
</svg>
